<svg width="54" height="39" viewBox="0 0 54 39" fill="none" xmlns="http://www.w3.org/2000/svg">
<path d="M38.8188 21.375C40.7875 21.375 42.52 20.6063 43.4125 19.4438L52.81 7.275C53.7812 6.0375 52.5213 4.5 50.5262 4.5H11.6763L9.20875 0.75H0.625V4.5H5.875L15.325 18.7313L11.7812 23.3062C9.865 25.8188 12.385 28.875 16.375 28.875H47.875V25.125H16.375L19.2625 21.375H38.8188ZM14.17 8.25H46.0637L38.8188 17.625H20.3912L14.17 8.25ZM16.375 30.75C13.4875 30.75 11.1513 32.4375 11.1513 34.5C11.1513 36.5625 13.4875 38.25 16.375 38.25C19.2625 38.25 21.625 36.5625 21.625 34.5C21.625 32.4375 19.2625 30.75 16.375 30.75ZM42.625 30.75C39.7375 30.75 37.4012 32.4375 37.4012 34.5C37.4012 36.5625 39.7375 38.25 42.625 38.25C45.5125 38.25 47.875 36.5625 47.875 34.5C47.875 32.4375 45.5125 30.75 42.625 30.75Z" fill="#1D6FE9"/>
</svg>
