<svg width="34" height="32" viewBox="0 0 34 32" fill="none" xmlns="http://www.w3.org/2000/svg">
<rect width="34" height="32" fill="white"/>
<path d="M28.3475 20.5067C26.605 20.5067 24.9192 20.24 23.3467 19.76C22.8508 19.6 22.2983 19.72 21.9158 20.08L19.6917 22.7067C15.6825 20.9067 11.9283 17.5067 9.93083 13.6L12.6933 11.3867C13.0758 11.0133 13.1892 10.4933 13.0333 10.0267C12.5092 8.54667 12.24 6.96 12.24 5.32C12.24 4.6 11.6025 4 10.8375 4H5.93583C5.17083 4 4.25 4.32 4.25 5.32C4.25 17.7067 15.2008 28 28.3475 28C29.3533 28 29.75 27.16 29.75 26.4267V21.8267C29.75 21.1067 29.1125 20.5067 28.3475 20.5067Z" fill="black"/>
</svg>
