<svg width="377" height="135" viewBox="0 0 377 135" fill="none" xmlns="http://www.w3.org/2000/svg">
<g filter="url(#filter0_f)">
<rect x="4" y="4" width="117" height="109" fill="white" fill-opacity="0.5"/>
<rect x="4.5" y="4.5" width="116" height="108" stroke="#1D6FE9"/>
</g>
<path d="M61.7695 23.125H64.2305C64.4492 23.125 64.5586 23.25 64.5586 23.5V56.5C64.5586 56.75 64.4492 56.875 64.2305 56.875H61.7695C61.5508 56.875 61.4414 56.75 61.4414 56.5V23.5C61.4414 23.25 61.5508 23.125 61.7695 23.125Z" fill="black"/>
<path d="M49.3281 36H76.8906C77.1094 36 77.2188 36.125 77.2188 36.375V39.1875C77.2188 39.4375 77.1094 39.5625 76.8906 39.5625H49.3281C49.1094 39.5625 49 39.4375 49 39.1875V36.375C49 36.125 49.1094 36 49.3281 36Z" fill="black"/>
<path d="M22.54 81.5V88.339C22.54 88.9737 22.4443 89.529 22.253 90.005C22.0617 90.4763 21.798 90.8683 21.462 91.181C21.1307 91.4937 20.7363 91.7293 20.279 91.888C19.8217 92.042 19.327 92.119 18.795 92.119C18.2257 92.119 17.7217 92.021 17.283 91.825C16.8443 91.6243 16.4757 91.3443 16.177 90.985C15.8783 90.621 15.6497 90.1847 15.491 89.676C15.337 89.1673 15.26 88.605 15.26 87.989V82.97L15.05 81.5L16.695 81.36V88.122C16.695 88.5653 16.7533 88.962 16.87 89.312C16.9867 89.6573 17.143 89.9513 17.339 90.194C17.5397 90.432 17.7707 90.614 18.032 90.74C18.2933 90.866 18.571 90.929 18.865 90.929C19.2057 90.929 19.5137 90.8777 19.789 90.775C20.069 90.6723 20.3047 90.5183 20.496 90.313C20.692 90.1077 20.8413 89.8533 20.944 89.55C21.0513 89.242 21.105 88.8827 21.105 88.472V81.5H22.54ZM26.5327 90.88H27.6807C28.1101 90.88 28.4811 90.81 28.7937 90.67C29.1111 90.5253 29.3701 90.3247 29.5707 90.068C29.7761 89.8113 29.9277 89.5033 30.0257 89.144C30.1237 88.7847 30.1727 88.388 30.1727 87.954C30.1727 87.4967 30.1284 87.1023 30.0397 86.771C29.9511 86.435 29.8297 86.1597 29.6757 85.945C29.5217 85.7257 29.3421 85.5647 29.1367 85.462C28.9361 85.3547 28.7214 85.301 28.4927 85.301C28.2641 85.301 28.0494 85.3313 27.8487 85.392C27.6527 85.448 27.4707 85.5203 27.3027 85.609C27.1394 85.6977 26.9924 85.7957 26.8617 85.903C26.7311 86.0103 26.6214 86.113 26.5327 86.211V90.88ZM25.2027 95.5V84.3L26.5327 84.16V85.392L27.1977 84.503C27.3331 84.4237 27.5244 84.3513 27.7717 84.286C28.0237 84.216 28.3317 84.181 28.6957 84.181C29.0831 84.181 29.4471 84.272 29.7877 84.454C30.1284 84.636 30.4247 84.895 30.6767 85.231C30.9334 85.567 31.1341 85.973 31.2787 86.449C31.4281 86.925 31.5027 87.457 31.5027 88.045C31.5027 88.619 31.4094 89.1487 31.2227 89.634C31.0361 90.1147 30.7701 90.5323 30.4247 90.887C30.0841 91.237 29.6687 91.51 29.1787 91.706C28.6934 91.902 28.1497 92 27.5477 92H26.5327V95.5H25.2027ZM34.23 89.368C34.23 89.676 34.2463 89.935 34.279 90.145C34.3163 90.3503 34.3677 90.5183 34.433 90.649C34.503 90.775 34.587 90.866 34.685 90.922C34.7877 90.9733 34.9043 90.999 35.035 90.999C35.1377 90.999 35.231 90.9943 35.315 90.985C35.399 90.971 35.4713 90.9547 35.532 90.936C35.602 90.9173 35.665 90.8963 35.721 90.873L36.204 91.72C36.1667 91.7573 36.106 91.7993 36.022 91.846C35.9427 91.888 35.847 91.93 35.735 91.972C35.623 92.014 35.4947 92.049 35.35 92.077C35.21 92.105 35.0583 92.119 34.895 92.119C34.475 92.119 34.1343 92.042 33.873 91.888C33.6117 91.734 33.4087 91.524 33.264 91.258C33.1193 90.992 33.0213 90.684 32.97 90.334C32.9233 89.9793 32.9 89.6013 32.9 89.2V82.2L32.76 80.8L34.23 80.66V89.368ZM40.5875 92.119C40.0695 92.119 39.5959 92.0187 39.1665 91.818C38.7419 91.6127 38.3755 91.3327 38.0675 90.978C37.7595 90.6187 37.5192 90.1963 37.3465 89.711C37.1785 89.221 37.0945 88.6937 37.0945 88.129C37.0945 87.5643 37.1762 87.0417 37.3395 86.561C37.5029 86.0757 37.7362 85.658 38.0395 85.308C38.3429 84.9533 38.7092 84.678 39.1385 84.482C39.5725 84.2813 40.0555 84.181 40.5875 84.181C41.1055 84.181 41.5792 84.2813 42.0085 84.482C42.4379 84.678 42.8065 84.9533 43.1145 85.308C43.4225 85.658 43.6629 86.0757 43.8355 86.561C44.0082 87.0417 44.0945 87.5643 44.0945 88.129C44.0945 88.6937 44.0105 89.221 43.8425 89.711C43.6792 90.1963 43.4459 90.6187 43.1425 90.978C42.8392 91.3327 42.4705 91.6127 42.0365 91.818C41.6025 92.0187 41.1195 92.119 40.5875 92.119ZM42.7645 88.318C42.7645 87.94 42.7225 87.569 42.6385 87.205C42.5592 86.841 42.4309 86.5167 42.2535 86.232C42.0762 85.9427 41.8475 85.7093 41.5675 85.532C41.2875 85.3547 40.9515 85.266 40.5595 85.266C40.1862 85.266 39.8642 85.343 39.5935 85.497C39.3229 85.651 39.1012 85.8563 38.9285 86.113C38.7559 86.3697 38.6275 86.6613 38.5435 86.988C38.4642 87.3147 38.4245 87.6507 38.4245 87.996C38.4245 88.374 38.4642 88.745 38.5435 89.109C38.6275 89.473 38.7559 89.7973 38.9285 90.082C39.1059 90.3667 39.3322 90.5977 39.6075 90.775C39.8875 90.9477 40.2235 91.034 40.6155 91.034C40.9842 91.034 41.3039 90.957 41.5745 90.803C41.8452 90.649 42.0692 90.446 42.2465 90.194C42.4239 89.9373 42.5545 89.6457 42.6385 89.319C42.7225 88.9923 42.7645 88.6587 42.7645 88.318ZM51.2291 92H49.7591V90.866L49.1011 91.65C49.0217 91.7107 48.9307 91.769 48.8281 91.825C48.7254 91.881 48.6204 91.9323 48.5131 91.979C48.4104 92.021 48.3054 92.0537 48.1981 92.077C48.0954 92.105 47.9997 92.119 47.9111 92.119C47.5611 92.119 47.2251 92.0653 46.9031 91.958C46.5857 91.846 46.3057 91.685 46.0631 91.475C45.8251 91.2603 45.6337 90.9967 45.4891 90.684C45.3491 90.3667 45.2791 90.0027 45.2791 89.592C45.2791 89.158 45.3654 88.7823 45.5381 88.465C45.7154 88.143 45.9394 87.877 46.2101 87.667C46.4854 87.4523 46.7911 87.2937 47.1271 87.191C47.4631 87.0837 47.7921 87.03 48.1141 87.03C48.3801 87.03 48.6134 87.044 48.8141 87.072C49.0194 87.1 49.1921 87.1327 49.3321 87.17C49.4954 87.212 49.6377 87.2587 49.7591 87.31V87.065C49.7591 86.7897 49.7427 86.5423 49.7101 86.323C49.6774 86.1037 49.6097 85.9193 49.5071 85.77C49.4091 85.616 49.2644 85.4993 49.0731 85.42C48.8864 85.3407 48.6367 85.301 48.3241 85.301C48.0721 85.301 47.8294 85.3197 47.5961 85.357C47.3627 85.3897 47.1551 85.427 46.9731 85.469C46.7584 85.5203 46.5601 85.574 46.3781 85.63L45.8741 84.692C46.0794 84.5987 46.3127 84.5147 46.5741 84.44C46.7981 84.3747 47.0641 84.3163 47.3721 84.265C47.6801 84.209 48.0207 84.181 48.3941 84.181C48.9307 84.181 49.3741 84.2533 49.7241 84.398C50.0741 84.5427 50.3494 84.7457 50.5501 85.007C50.7507 85.2683 50.8907 85.5833 50.9701 85.952C51.0494 86.316 51.0891 86.722 51.0891 87.17V90.74L51.2291 92ZM49.7591 88.269C49.6284 88.2503 49.4884 88.2317 49.3391 88.213C49.2131 88.199 49.0684 88.185 48.9051 88.171C48.7417 88.157 48.5714 88.15 48.3941 88.15C48.1327 88.15 47.8924 88.1757 47.6731 88.227C47.4584 88.2783 47.2717 88.3623 47.1131 88.479C46.9544 88.591 46.8307 88.738 46.7421 88.92C46.6534 89.102 46.6091 89.3237 46.6091 89.585C46.6091 89.795 46.6441 89.9863 46.7141 90.159C46.7841 90.3317 46.8797 90.481 47.0011 90.607C47.1224 90.733 47.2647 90.831 47.4281 90.901C47.5961 90.9663 47.7757 90.999 47.9671 90.999C48.0557 90.999 48.1491 90.9873 48.2471 90.964C48.3497 90.936 48.4501 90.901 48.5481 90.859C48.6507 90.817 48.7511 90.768 48.8491 90.712C48.9517 90.656 49.0474 90.6 49.1361 90.544C49.3461 90.4087 49.5537 90.2547 49.7591 90.082V88.269ZM56.7365 85.42C56.3072 85.42 55.9362 85.5017 55.6235 85.665C55.3109 85.8237 55.0519 86.0407 54.8465 86.316C54.6412 86.5913 54.4895 86.9157 54.3915 87.289C54.2935 87.6623 54.2445 88.0613 54.2445 88.486C54.2445 88.9013 54.2935 89.2653 54.3915 89.578C54.4895 89.8907 54.6155 90.152 54.7695 90.362C54.9282 90.572 55.1079 90.7307 55.3085 90.838C55.5092 90.9407 55.7145 90.992 55.9245 90.992C56.1439 90.992 56.3469 90.9547 56.5335 90.88C56.7249 90.8053 56.8999 90.712 57.0585 90.6C57.2172 90.488 57.3595 90.3667 57.4855 90.236C57.6115 90.1007 57.7212 89.9747 57.8145 89.858V85.42H56.7365ZM57.8145 92V90.866L57.1495 91.657C57.0655 91.713 56.9745 91.769 56.8765 91.825C56.7785 91.881 56.6689 91.93 56.5475 91.972C56.4262 92.014 56.2909 92.049 56.1415 92.077C55.9969 92.105 55.8335 92.119 55.6515 92.119C55.2689 92.119 54.9119 92.0257 54.5805 91.839C54.2492 91.6477 53.9599 91.384 53.7125 91.048C53.4699 90.712 53.2762 90.313 53.1315 89.851C52.9915 89.3843 52.9215 88.8733 52.9215 88.318C52.9215 87.758 53.0102 87.2353 53.1875 86.75C53.3695 86.26 53.6262 85.833 53.9575 85.469C54.2889 85.105 54.6879 84.8203 55.1545 84.615C55.6259 84.405 56.1509 84.3 56.7295 84.3H57.8145V80.66L59.1445 80.8V90.74L59.2845 92H57.8145ZM66.7636 92V82.97L66.5536 81.5L68.2336 81.36V92H66.7636ZM72.3609 92H71.0309V84.3L72.3609 84.16V85.441L72.7879 84.692C72.8719 84.636 72.9769 84.5777 73.1029 84.517C73.2289 84.4563 73.3712 84.4027 73.5299 84.356C73.6885 84.3047 73.8589 84.2627 74.0409 84.23C74.2229 84.1973 74.4095 84.181 74.6009 84.181C75.1235 84.181 75.5482 84.3093 75.8749 84.566C76.2015 84.818 76.4139 85.1423 76.5119 85.539L77.0439 84.72C77.2072 84.5893 77.4382 84.468 77.7369 84.356C78.0355 84.2393 78.3785 84.181 78.7659 84.181C79.1205 84.181 79.4239 84.2417 79.6759 84.363C79.9279 84.4797 80.1332 84.65 80.2919 84.874C80.4552 85.098 80.5742 85.3687 80.6489 85.686C80.7235 86.0033 80.7609 86.358 80.7609 86.75V92H79.4309V86.82C79.4309 86.568 79.4122 86.3487 79.3749 86.162C79.3422 85.9707 79.2815 85.812 79.1929 85.686C79.1089 85.5553 78.9945 85.4597 78.8499 85.399C78.7052 85.3337 78.5255 85.301 78.3109 85.301C78.1755 85.301 78.0332 85.3243 77.8839 85.371C77.7392 85.4177 77.5922 85.4807 77.4429 85.56C77.2935 85.6347 77.1465 85.7233 77.0019 85.826C76.8619 85.924 76.7289 86.0243 76.6029 86.127C76.6169 86.2623 76.6239 86.3767 76.6239 86.47C76.6285 86.5587 76.6309 86.6753 76.6309 86.82V92H75.3009V86.82C75.3009 86.316 75.2169 85.938 75.0489 85.686C74.8809 85.4293 74.5799 85.301 74.1459 85.301C74.0059 85.301 73.8565 85.322 73.6979 85.364C73.5392 85.406 73.3805 85.4643 73.2219 85.539C73.0679 85.6137 72.9162 85.7 72.7669 85.798C72.6175 85.8913 72.4822 85.9893 72.3609 86.092V92ZM88.6763 92H87.2063V90.866L86.5483 91.65C86.469 91.7107 86.378 91.769 86.2753 91.825C86.1727 91.881 86.0677 91.9323 85.9603 91.979C85.8577 92.021 85.7527 92.0537 85.6453 92.077C85.5427 92.105 85.447 92.119 85.3583 92.119C85.0083 92.119 84.6723 92.0653 84.3503 91.958C84.033 91.846 83.753 91.685 83.5103 91.475C83.2723 91.2603 83.081 90.9967 82.9363 90.684C82.7963 90.3667 82.7263 90.0027 82.7263 89.592C82.7263 89.158 82.8127 88.7823 82.9853 88.465C83.1627 88.143 83.3867 87.877 83.6573 87.667C83.9327 87.4523 84.2383 87.2937 84.5743 87.191C84.9103 87.0837 85.2393 87.03 85.5613 87.03C85.8273 87.03 86.0607 87.044 86.2613 87.072C86.4667 87.1 86.6393 87.1327 86.7793 87.17C86.9427 87.212 87.085 87.2587 87.2063 87.31V87.065C87.2063 86.7897 87.19 86.5423 87.1573 86.323C87.1247 86.1037 87.057 85.9193 86.9543 85.77C86.8563 85.616 86.7117 85.4993 86.5203 85.42C86.3337 85.3407 86.084 85.301 85.7713 85.301C85.5193 85.301 85.2767 85.3197 85.0433 85.357C84.81 85.3897 84.6023 85.427 84.4203 85.469C84.2057 85.5203 84.0073 85.574 83.8253 85.63L83.3213 84.692C83.5267 84.5987 83.76 84.5147 84.0213 84.44C84.2453 84.3747 84.5113 84.3163 84.8193 84.265C85.1273 84.209 85.468 84.181 85.8413 84.181C86.378 84.181 86.8213 84.2533 87.1713 84.398C87.5213 84.5427 87.7967 84.7457 87.9973 85.007C88.198 85.2683 88.338 85.5833 88.4173 85.952C88.4967 86.316 88.5363 86.722 88.5363 87.17V90.74L88.6763 92ZM87.2063 88.269C87.0757 88.2503 86.9357 88.2317 86.7863 88.213C86.6603 88.199 86.5157 88.185 86.3523 88.171C86.189 88.157 86.0187 88.15 85.8413 88.15C85.58 88.15 85.3397 88.1757 85.1203 88.227C84.9057 88.2783 84.719 88.3623 84.5603 88.479C84.4017 88.591 84.278 88.738 84.1893 88.92C84.1007 89.102 84.0563 89.3237 84.0563 89.585C84.0563 89.795 84.0913 89.9863 84.1613 90.159C84.2313 90.3317 84.327 90.481 84.4483 90.607C84.5697 90.733 84.712 90.831 84.8753 90.901C85.0433 90.9663 85.223 90.999 85.4143 90.999C85.503 90.999 85.5963 90.9873 85.6943 90.964C85.797 90.936 85.8973 90.901 85.9953 90.859C86.098 90.817 86.1983 90.768 86.2963 90.712C86.399 90.656 86.4947 90.6 86.5833 90.544C86.7933 90.4087 87.001 90.2547 87.2063 90.082V88.269ZM95.2618 91.055L94.6528 91.825C94.6108 91.853 94.5501 91.8833 94.4708 91.916C94.3961 91.9487 94.3028 91.979 94.1908 92.007C94.0788 92.0397 93.9481 92.0653 93.7988 92.084C93.6495 92.1073 93.4838 92.119 93.3018 92.119C92.8771 92.119 92.4805 92.0163 92.1118 91.811C91.7478 91.601 91.4305 91.3187 91.1598 90.964C90.8891 90.6047 90.6768 90.187 90.5228 89.711C90.3688 89.2303 90.2918 88.7217 90.2918 88.185C90.2918 87.639 90.3618 87.1233 90.5018 86.638C90.6418 86.1527 90.8518 85.728 91.1318 85.364C91.4118 85 91.7595 84.713 92.1748 84.503C92.5901 84.2883 93.0731 84.181 93.6238 84.181C93.7965 84.181 93.9645 84.188 94.1278 84.202C94.2958 84.216 94.4521 84.2487 94.5968 84.3L95.2618 85.294V84.16L96.5918 84.3V92.322C96.5918 92.7793 96.5125 93.2087 96.3538 93.61C96.1998 94.0113 95.9758 94.359 95.6818 94.653C95.3878 94.9517 95.0285 95.1873 94.6038 95.36C94.1838 95.5327 93.7078 95.619 93.1758 95.619C92.8071 95.619 92.4828 95.5723 92.2028 95.479C91.9275 95.3857 91.6918 95.283 91.4958 95.171C91.2718 95.0403 91.0781 94.8887 90.9148 94.716L91.6008 93.946C91.7361 94.0487 91.8878 94.142 92.0558 94.226C92.2005 94.296 92.3685 94.359 92.5598 94.415C92.7511 94.471 92.9588 94.499 93.1828 94.499C93.4721 94.499 93.7428 94.4383 93.9948 94.317C94.2468 94.2003 94.4661 94.0393 94.6528 93.834C94.8441 93.6287 94.9935 93.386 95.1008 93.106C95.2081 92.8307 95.2618 92.5343 95.2618 92.217V91.055ZM95.2618 86.162C95.1358 86.0033 94.9888 85.861 94.8208 85.735C94.6761 85.6277 94.5011 85.5297 94.2958 85.441C94.0905 85.3477 93.8548 85.301 93.5888 85.301C93.3088 85.301 93.0661 85.3453 92.8608 85.434C92.6555 85.5227 92.4781 85.6417 92.3288 85.791C92.1841 85.9403 92.0651 86.1153 91.9718 86.316C91.8831 86.512 91.8108 86.722 91.7548 86.946C91.7035 87.1653 91.6685 87.3893 91.6498 87.618C91.6311 87.842 91.6218 88.059 91.6218 88.269C91.6218 88.6657 91.6638 89.032 91.7478 89.368C91.8365 89.6993 91.9578 89.9863 92.1118 90.229C92.2705 90.467 92.4595 90.6537 92.6788 90.789C92.9028 90.9243 93.1478 90.992 93.4138 90.992C93.6518 90.992 93.8641 90.9663 94.0508 90.915C94.2375 90.8637 94.4055 90.796 94.5548 90.712C94.7041 90.6233 94.8348 90.5253 94.9468 90.418C95.0635 90.306 95.1685 90.1917 95.2618 90.075V86.162ZM104.748 91.097C104.604 91.2463 104.445 91.384 104.272 91.51C104.1 91.636 103.908 91.7457 103.698 91.839C103.488 91.9277 103.255 91.9953 102.998 92.042C102.746 92.0933 102.464 92.119 102.151 92.119C101.531 92.119 101.001 92.0093 100.562 91.79C100.124 91.5707 99.7643 91.2767 99.4843 90.908C99.209 90.5393 99.006 90.117 98.8753 89.641C98.7493 89.165 98.6863 88.668 98.6863 88.15C98.6863 87.8187 98.7167 87.492 98.7773 87.17C98.838 86.8433 98.929 86.533 99.0503 86.239C99.1717 85.945 99.3233 85.672 99.5053 85.42C99.6873 85.168 99.8997 84.951 100.142 84.769C100.385 84.587 100.658 84.4447 100.961 84.342C101.269 84.2347 101.608 84.181 101.976 84.181C102.48 84.181 102.917 84.2627 103.285 84.426C103.654 84.5893 103.96 84.818 104.202 85.112C104.445 85.406 104.625 85.7583 104.741 86.169C104.858 86.5797 104.916 87.0347 104.916 87.534C104.916 87.6787 104.912 87.8373 104.902 88.01C104.893 88.1827 104.879 88.346 104.86 88.5H100.016C100.016 88.85 100.063 89.1767 100.156 89.48C100.254 89.7833 100.39 90.0493 100.562 90.278C100.735 90.502 100.943 90.6793 101.185 90.81C101.433 90.936 101.708 90.999 102.011 90.999C102.31 90.999 102.569 90.978 102.788 90.936C103.012 90.8893 103.204 90.8357 103.362 90.775C103.521 90.7097 103.649 90.6443 103.747 90.579C103.85 90.5137 103.929 90.4623 103.985 90.425L104.748 91.097ZM103.586 87.45C103.591 87.3987 103.593 87.3473 103.593 87.296C103.598 87.2447 103.6 87.1933 103.6 87.142C103.6 86.876 103.57 86.631 103.509 86.407C103.449 86.183 103.355 85.9893 103.229 85.826C103.108 85.658 102.952 85.5273 102.76 85.434C102.569 85.3407 102.343 85.294 102.081 85.294C101.769 85.294 101.5 85.3453 101.276 85.448C101.057 85.546 100.87 85.6743 100.716 85.833C100.567 85.987 100.446 86.1573 100.352 86.344C100.264 86.5307 100.196 86.708 100.149 86.876L99.7853 87.639L101.031 87.45H103.586ZM110.311 85.567C110.227 85.525 110.126 85.483 110.01 85.441C109.893 85.399 109.772 85.3617 109.646 85.329C109.52 85.2963 109.391 85.2707 109.261 85.252C109.135 85.2333 109.013 85.224 108.897 85.224C108.402 85.224 108.052 85.2987 107.847 85.448C107.641 85.5927 107.539 85.812 107.539 86.106C107.539 86.302 107.606 86.4653 107.742 86.596C107.877 86.722 108.052 86.8363 108.267 86.939C108.481 87.0417 108.719 87.1397 108.981 87.233C109.247 87.3217 109.506 87.429 109.758 87.555C109.94 87.6437 110.124 87.7487 110.311 87.87C110.497 87.9913 110.665 88.1337 110.815 88.297C110.964 88.4603 111.085 88.6447 111.179 88.85C111.272 89.0553 111.319 89.2863 111.319 89.543C111.319 90.0143 111.239 90.4133 111.081 90.74C110.922 91.0667 110.705 91.3327 110.43 91.538C110.159 91.7387 109.839 91.8857 109.471 91.979C109.107 92.0723 108.717 92.119 108.302 92.119C108.143 92.119 107.963 92.1027 107.763 92.07C107.562 92.042 107.361 92.0023 107.161 91.951C106.96 91.895 106.769 91.8297 106.587 91.755C106.405 91.6803 106.253 91.601 106.132 91.517L106.594 90.593C106.706 90.649 106.839 90.7027 106.993 90.754C107.147 90.8007 107.305 90.8427 107.469 90.88C107.632 90.9173 107.793 90.9477 107.952 90.971C108.115 90.9897 108.26 90.999 108.386 90.999C108.6 90.999 108.806 90.978 109.002 90.936C109.202 90.8893 109.377 90.817 109.527 90.719C109.681 90.621 109.802 90.495 109.891 90.341C109.984 90.1823 110.031 89.9887 110.031 89.76C110.031 89.5873 109.993 89.4357 109.919 89.305C109.849 89.1743 109.751 89.06 109.625 88.962C109.503 88.8593 109.361 88.766 109.198 88.682C109.034 88.598 108.862 88.5187 108.68 88.444C108.498 88.3647 108.311 88.2853 108.12 88.206C107.928 88.122 107.746 88.031 107.574 87.933C107.41 87.8397 107.252 87.737 107.098 87.625C106.948 87.513 106.815 87.387 106.699 87.247C106.582 87.107 106.489 86.9507 106.419 86.778C106.349 86.6007 106.314 86.4 106.314 86.176C106.314 85.8213 106.377 85.518 106.503 85.266C106.629 85.0093 106.806 84.8017 107.035 84.643C107.263 84.4843 107.539 84.3677 107.861 84.293C108.183 84.2183 108.537 84.181 108.925 84.181C109.102 84.181 109.277 84.195 109.45 84.223C109.622 84.251 109.788 84.2883 109.947 84.335C110.105 84.377 110.25 84.4283 110.381 84.489C110.511 84.5497 110.623 84.6103 110.717 84.671L110.311 85.567Z" fill="black"/>
<defs>
<filter id="filter0_f" x="0" y="0" width="125" height="117" filterUnits="userSpaceOnUse" color-interpolation-filters="sRGB">
<feFlood flood-opacity="0" result="BackgroundImageFix"/>
<feBlend mode="normal" in="SourceGraphic" in2="BackgroundImageFix" result="shape"/>
<feGaussianBlur stdDeviation="2" result="effect1_foregroundBlur"/>
</filter>
</defs>
</svg>
